#!OML:ASF H:\LiuWeirdWalks\Patient Classification 1\Patient 1\Session 1\male.ASF
:FULLY-SPECIFIED
:DEGREES
1219
root 2.84542 18.1714 24.017 5.65961 0.699552 -8.35021
lowerback 8.60844 0.19749 -4.95513
upperback 1.07328 -0.246276 -1.09493
thorax -3.69867 -0.0585892 1.67774
lowerneck -24.4586 1.73804 7.89058
upperneck 15.5341 0.349949 -3.3196
head 8.87953 0.272337 -2.36981
rclavicle 6.75868e-015 1.27222e-014
rhumerus -19.8891 -34.7097 -11.8381
rradius 35.2535
rwrist -2.9138
rhand -25.8199 -3.84578
rfingers 7.12502
rthumb 0.719719 -33.8243
lclavicle 6.75868e-015 1.27222e-014
lhumerus -30.6752 32.1501 31.3249
lradius 47.3425
lwrist 8.48241
lhand -20.2944 -1.89433
lfingers 7.12502
lthumb 6.05559 27.9991
rfemur -0.10628 -2.85477 18.8266
rtibia 39.8984
rfoot 14.6088 -8.15332
rtoes -13.5979
lfemur -18.0372 -1.04142 -10.846
ltibia 28.9457
lfoot -10.4989 11.1849
ltoes -6.83781
1220
root 2.87827 18.1725 24.0696 5.59475 0.821713 -8.04079
lowerback 8.60351 0.170215 -5.0756
upperback 1.0821 -0.291588 -1.05963
thorax -3.68294 -0.079548 1.78718
lowerneck -24.289 1.72608 7.89703
upperneck 15.4483 0.367622 -3.42073
head 8.82243 0.268715 -2.40198
rclavicle 7.95139e-015 1.59028e-015
rhumerus -19.765 -34.6283 -12.0243
rradius 35.2189
rwrist -2.76661
rhand -25.7372 -3.82876
rfingers 7.12502
rthumb 0.799571 -33.807
lclavicle 7.95139e-015 1.59028e-015
lhumerus -30.8285 32.0613 31.2204
lradius 47.465
lwrist 8.57373
lhand -20.3165 -1.91227
lfingers 7.12502
lthumb 6.03427 27.9818
rfemur -0.670007 -2.88985 18.5375
rtibia 41.1892
rfoot 14.9812 -8.38591
rtoes -11.6316
lfemur -17.6506 -1.04944 -11.3072
ltibia 28.6661
lfoot -10.6261 10.9784
ltoes -6.90654
1221
root 2.90813 18.1733 24.1215 5.5124 0.946578 -7.7668
lowerback 8.59116 0.153415 -5.15728
upperback 1.11063 -0.318051 -1.0229
thorax -3.64381 -0.0926211 1.87414
lowerneck -24.118 1.70155 7.89923
upperneck 15.3584 0.368052 -3.51505
head 8.76265 0.2576 -2.43341
rclavicle -3.18055e-015 -6.36111e-015
rhumerus -19.7144 -34.5579 -12.1888
rradius 35.2144
rwrist -2.58269
rhand -25.5968 -3.79848
rfingers 7.12502
rthumb 0.935176 -33.7762
lclavicle -3.18055e-015 -6.36111e-015
lhumerus -30.9028 32.002 31.1497
lradius 47.5894
lwrist 8.64371
lhand -20.3379 -1.92057
lfingers 7.12502
lthumb 6.01356 27.9741
rfemur -1.2378 -2.91937 18.3206
rtibia 42.4948
rfoot 15.1648 -8.69379
rtoes -9.86203
lfemur -17.2469 -1.03619 -11.7112
ltibia 28.3797
lfoot -10.7525 10.7448
ltoes -6.96171
1222
root 2.93726 18.1739 24.173 5.42656 1.09352 -7.48978
lowerback 8.58009 0.133849 -5.21576
upperback 1.14188 -0.346328 -0.995443
thorax -3.60253 -0.107115 1.93864
lowerneck -23.9245 1.6726 7.91441
upperneck 15.2351 0.362902 -3.62525
head 8.68737 0.242529 -2.47261
rclavicle 2.10712e-014 3.33958e-014
rhumerus -19.7078 -34.4718 -12.3437
rradius 35.2262
rwrist -2.42447
rhand -25.421 -3.70183
rfingers 7.12502
rthumb 1.10498 -33.6787
lclavicle 2.10712e-014 3.33958e-014
lhumerus -30.9254 31.9558 31.0931
lradius 47.7041
lwrist 8.7023
lhand -20.3653 -1.89984
lfingers 7.12502
lthumb 5.98713 27.9956
rfemur -1.81503 -3.01158 18.1047
rtibia 43.8078
rfoot 15.1064 -9.04885
rtoes -8.47276
lfemur -16.8401 -1.01554 -12.115
ltibia 28.0881
lfoot -10.8812 10.4856
ltoes -6.98561
1223
root 2.96395 18.1743 24.2245 5.33299 1.22937 -7.24529
lowerback 8.5632 0.118475 -5.26042
upperback 1.17304 -0.366971 -0.957658
thorax -3.55857 -0.118073 2.00519
lowerneck -23.7098 1.64078 7.92599
upperneck 15.1239 0.356317 -3.73365
head 8.61275 0.227307 -2.51073
rclavicle -1.94809e-014 -6.36111e-015
rhumerus -19.7091 -34.3494 -12.5099
rradius 35.2405
rwrist -2.32186
rhand -25.2308 -3.59158
rfingers 7.12502
rthumb 1.28866 -33.5674
lclavicle -1.94809e-014 -6.36111e-015
lhumerus -30.9343 31.9359 31.0271
lradius 47.8183
lwrist 8.74337
lhand -20.3878 -1.80428
lfingers 7.12502
lthumb 5.96538 28.0917
rfemur -2.4044 -3.10385 17.9457
rtibia 45.118
rfoot 14.8108 -9.54088
rtoes -7.59246
lfemur -16.421 -0.963265 -12.4714
ltibia 27.7937
lfoot -11.0129 10.2143
ltoes -6.99118
1224
root 2.98971 18.1743 24.2766 5.24058 1.36672 -6.99029
lowerback 8.57344 0.0932203 -5.33892
upperback 1.20665 -0.405203 -0.910636
thorax -3.52551 -0.137074 2.10243
lowerneck -23.5934 1.64417 7.98408
upperneck 15.0378 0.384628 -3.89608
head 8.56563 0.225171 -2.57083
rclavicle -5.1684e-015 9.54166e-015
rhumerus -19.61 -34.2934 -12.7243
rradius 35.1766
rwrist -2.21419
rhand -25.0656 -3.46059
rfingers 7.12502
rthumb 1.44822 -33.4354
lclavicle -5.1684e-015 9.54166e-015
lhumerus -30.9473 31.9473 30.9446
lradius 47.936
lwrist 8.79958
lhand -20.4316 -1.72941
lfingers 7.12502
lthumb 5.92316 28.1678
rfemur -3.00277 -3.24494 17.7735
rtibia 46.4131
rfoot 14.2649 -10.1449
rtoes -6.98901
lfemur -15.9981 -0.889417 -12.8353
ltibia 27.4968
lfoot -11.1512 9.92351
ltoes -6.9596
1225
root 3.01509 18.1739 24.3296 5.1464 1.50542 -6.71899
lowerback 8.59724 0.0401335 -5.48765
upperback 1.19489 -0.488904 -0.846159
thorax -3.54283 -0.17556 2.26258
lowerneck -23.3299 1.68076 8.09231
upperneck 14.9381 0.462518 -4.09938
head 8.49298 0.245906 -2.64541
rclavicle -2.10712e-014 -1.74931e-014
rhumerus -19.3632 -34.1319 -13.0178
rradius 34.9924
rwrist -2.14319
rhand -24.9351 -3.28469
rfingers 7.12502
rthumb 1.57422 -33.2586
lclavicle -2.10712e-014 -1.74931e-014
lhumerus -31.1136 31.9106 30.7424
lradius 48.0677
lwrist 8.88272
lhand -20.4555 -1.67791
lfingers 7.12502
lthumb 5.90007 28.2199
rfemur -3.6015 -3.43752 17.5731
rtibia 47.6803
rfoot 13.4821 -10.8479
rtoes -6.63437
lfemur -15.5655 -0.809481 -13.2155
ltibia 27.2009
lfoot -11.294 9.62911
ltoes -6.92502
1226
root 3.04023 18.1728 24.3821 5.05595 1.66 -6.41506
lowerback 8.62522 -0.00933178 -5.64423
upperback 1.18535 -0.569381 -0.796443
thorax -3.55992 -0.21242 2.41155
lowerneck -23.095 1.69774 8.16024
upperneck 14.8516 0.518995 -4.27532
head 8.42829 0.257526 -2.70723
rclavicle 3.57812e-015 4.13472e-014
rhumerus -19.1688 -33.9545 -13.2849
rradius 34.8431
rwrist -2.15584
rhand -24.8652 -3.16285
rfingers 7.12502
rthumb 1.64178 -33.1363
lclavicle 3.57812e-015 4.13472e-014
lhumerus -31.2168 31.863 30.5673
lradius 48.1928
lwrist 8.96467
lhand -20.4794 -1.68293
lfingers 7.12502
lthumb 5.87697 28.2156
rfemur -4.20881 -3.70278 17.3246
rtibia 48.9112
rfoot 12.5195 -11.5897
rtoes -6.31624
lfemur -15.1402 -0.723663 -13.6294
ltibia 26.9081
lfoot -11.4267 9.31651
ltoes -6.90086
1227
root 3.06449 18.171 24.4348 4.95747 1.81669 -6.12183
lowerback 8.65994 -0.0541153 -5.78586
upperback 1.17795 -0.642668 -0.744831
thorax -3.57872 -0.245856 2.55343
lowerneck -22.8822 1.70866 8.21084
upperneck 14.791 0.569109 -4.4413
head 8.37585 0.266742 -2.76408
rclavicle 6.75868e-015 -3.02153e-014
rhumerus -19.0055 -33.7869 -13.5305
rradius 34.7051
rwrist -2.18555
rhand -24.8295 -3.05452
rfingers 7.12502
rthumb 1.67621 -33.0277
lclavicle 6.75868e-015 -3.02153e-014
lhumerus -31.2762 31.8197 30.4002
lradius 48.3025
lwrist 9.00557
lhand -20.4883 -1.72785
lfingers 7.12502
lthumb 5.86836 28.1709
rfemur -4.81212 -4.00115 17.0845
rtibia 50.0904
rfoot 11.435 -12.3437
rtoes -6.05174
lfemur -14.7052 -0.629998 -14.0255
ltibia 26.6221
lfoot -11.552 9.00369
ltoes -6.90917
1228
root 3.08675 18.1691 24.4864 4.87029 1.97115 -5.83912
lowerback 8.69046 -0.0833689 -5.91376
upperback 1.18241 -0.693275 -0.690473
thorax -3.58447 -0.268803 2.68789
lowerneck -22.7604 1.69474 8.19415
upperneck 14.7637 0.591106 -4.56617
head 8.34776 0.263136 -2.80054
rclavicle -1.43125e-014 2.06736e-014
rhumerus -18.9297 -33.6694 -13.7276
rradius 34.6439
rwrist -2.23388
rhand -24.8242 -2.98748
rfingers 7.12502
rthumb 1.68132 -32.9606
lclavicle -1.43125e-014 2.06736e-014
lhumerus -31.2293 31.7991 30.2856
lradius 48.3814
lwrist 9.03075
lhand -20.4914 -1.79424
lfingers 7.12502
lthumb 5.86544 28.1046
rfemur -5.44778 -4.30602 16.8711
rtibia 51.2095
rfoot 10.2901 -13.0778
rtoes -5.75047
lfemur -14.2929 -0.519499 -14.3975
ltibia 26.3467
lfoot -11.6567 8.68773
ltoes -6.94402
